<svg width="580" height="148" xmlns="http://www.w3.org/2000/svg">
 <!-- Created with Method Draw - http://github.com/duopixel/Method-Draw/ -->

 <g>
  <title>background</title>
  <rect fill="none" id="canvas_background" height="150" width="582" y="-1" x="-1"/>
  <g display="none" overflow="visible" y="0" x="0" height="100%" width="100%" id="canvasGrid">
   <rect fill="url(#gridpattern)" stroke-width="0" y="0" x="0" height="100%" width="100%"/>
  </g>
 </g>
 <g>
  <title>Layer 1</title>
  <!-- Created with Method Draw - http://github.com/duopixel/Method-Draw/ -->
  <g transform="matrix(0.229885, 0, 0, 0.229885, 0, 0)" id="svg_183" stroke="null">
   <title>background</title>
   <rect x="-1" y="-1" width="582" height="402" id="svg_181" fill="none" stroke="null"/>
   <g transform="translate(700.35, 160.95) translate(0, 670)" id="svg_180" display="none" stroke="null">
    <rect id="svg_184" width="100%" height="100%" x="0" y="0" stroke-width="0" fill="url(#gridpattern)"/>
   </g>
  </g>
  <g transform="matrix(1.03623, 0, 0, 1.03623, -475.842, -824.261)" id="svg_185" stroke="null">
   <title>Layer 1</title>
   <text fill="#ffffff" stroke-width="0" x="262.62048" y="458.279232" id="svg_179" font-size="47" font-family="Helvetica, Arial, sans-serif" text-anchor="start" xml:space="preserve" font-weight="bold" transform="matrix(3.13939, 0, 0, 3.13939, -363.333, -506.71)" stroke="null">LeMenu</text>
   <g id="svg_157" stroke="null" transform="rotate(-24, 564.897, 825.622)">
    <g id="svg_176" transform="matrix(0.127569, 0, 0, 0.127569, 163.02, 80.0578)" stroke="null">
     <g id="svg_177" stroke="null">
      <rect x="2988.751109" y="5987.045324" width="323.05" height="75.231" fill="#ffffff" id="svg_178" stroke="null"/>
     </g>
    </g>
    <g id="svg_173" transform="matrix(0.127569, 0, 0, 0.127569, 163.02, 80.0578)" stroke="null">
     <g id="svg_174" stroke="null">
      <path d="m3311.79834,5678.576172c-26.722168,0 -50.834961,11.112305 -68.02002,28.946289c-6.555176,-45.777832 -45.910156,-80.973145 -93.500977,-80.973145s-86.946289,35.193848 -93.500977,80.973145c-17.185059,-17.833008 -41.29834,-28.946289 -68.02002,-28.946289c-52.181152,0 -94.47998,42.299316 -94.47998,94.478027c0,52.180176 42.298828,94.478027 94.478027,94.478027l0,86.124023l323.043945,0l0,-86.125c52.177734,0 94.478027,-42.298828 94.478027,-94.478027c0.000977,-52.179688 -42.299316,-94.477051 -94.478027,-94.477051z" fill="#ffffff" id="svg_175" stroke="null"/>
     </g>
    </g>
    <g id="svg_172" transform="matrix(0.127569, 0, 0, 0.127569, 163.02, 80.0578)" stroke="null"/>
    <g id="svg_171" transform="matrix(0.127569, 0, 0, 0.127569, 163.02, 80.0578)" stroke="null"/>
    <g id="svg_170" transform="matrix(0.127569, 0, 0, 0.127569, 163.02, 80.0578)" stroke="null"/>
    <g id="svg_169" transform="matrix(0.127569, 0, 0, 0.127569, 163.02, 80.0578)" stroke="null"/>
    <g id="svg_168" transform="matrix(0.127569, 0, 0, 0.127569, 163.02, 80.0578)" stroke="null"/>
    <g id="svg_167" transform="matrix(0.127569, 0, 0, 0.127569, 163.02, 80.0578)" stroke="null"/>
    <g id="svg_166" transform="matrix(0.127569, 0, 0, 0.127569, 163.02, 80.0578)" stroke="null"/>
    <g id="svg_165" transform="matrix(0.127569, 0, 0, 0.127569, 163.02, 80.0578)" stroke="null"/>
    <g id="svg_164" transform="matrix(0.127569, 0, 0, 0.127569, 163.02, 80.0578)" stroke="null"/>
    <g id="svg_163" transform="matrix(0.127569, 0, 0, 0.127569, 163.02, 80.0578)" stroke="null"/>
    <g id="svg_162" transform="matrix(0.127569, 0, 0, 0.127569, 163.02, 80.0578)" stroke="null"/>
    <g id="svg_161" transform="matrix(0.127569, 0, 0, 0.127569, 163.02, 80.0578)" stroke="null"/>
    <g id="svg_160" transform="matrix(0.127569, 0, 0, 0.127569, 163.02, 80.0578)" stroke="null"/>
    <g id="svg_159" transform="matrix(0.127569, 0, 0, 0.127569, 163.02, 80.0578)" stroke="null"/>
    <g id="svg_158" transform="matrix(0.127569, 0, 0, 0.127569, 163.02, 80.0578)" stroke="null"/>
   </g>
   <g id="svg_139" transform="rotate(45, 733.848, 961.479)" stroke="null">
    <g id="svg_155" transform="matrix(0.980961, 0, 0, 0.980961, -287.175, -449.89)" stroke="null">
     <path d="m1205.88855,1247.355469l4.983887,4.926025c0,0 18.159912,64.972046 -155.330078,238.462036c-40.606873,-23.098145 -61.996765,25.095947 -63.994812,31.950928c-8.842041,8.830078 -100.245972,98.886963 -100.245972,98.886963l-0.064087,-0.12793c-0.057983,0.12793 -0.115967,0.243896 -0.237915,0.348999c-8.301025,8.36499 -21.807983,8.36499 -30.051025,0c-8.302002,-8.25 -8.302002,-21.796997 0,-30.034058c0.057983,-0.12793 0.180054,-0.243896 0.284058,-0.243896l0,-0.116089c88.807983,-88.81189 88.754883,-88.859009 112.387939,-112.328979c9.254028,-9.31897 232.268005,-231.723999 232.268005,-231.723999z" fill="#FFFFFF" id="svg_156" stroke="null"/>
    </g>
    <g id="svg_154" transform="matrix(0.980961, 0, 0, 0.980961, -287.175, -449.89)" stroke="null"/>
    <g id="svg_153" transform="matrix(0.980961, 0, 0, 0.980961, -287.175, -449.89)" stroke="null"/>
    <g id="svg_152" transform="matrix(0.980961, 0, 0, 0.980961, -287.175, -449.89)" stroke="null"/>
    <g id="svg_151" transform="matrix(0.980961, 0, 0, 0.980961, -287.175, -449.89)" stroke="null"/>
    <g id="svg_150" transform="matrix(0.980961, 0, 0, 0.980961, -287.175, -449.89)" stroke="null"/>
    <g id="svg_149" transform="matrix(0.980961, 0, 0, 0.980961, -287.175, -449.89)" stroke="null"/>
    <g id="svg_148" transform="matrix(0.980961, 0, 0, 0.980961, -287.175, -449.89)" stroke="null"/>
    <g id="svg_147" transform="matrix(0.980961, 0, 0, 0.980961, -287.175, -449.89)" stroke="null"/>
    <g id="svg_146" transform="matrix(0.980961, 0, 0, 0.980961, -287.175, -449.89)" stroke="null"/>
    <g id="svg_145" transform="matrix(0.980961, 0, 0, 0.980961, -287.175, -449.89)" stroke="null"/>
    <g id="svg_144" transform="matrix(0.980961, 0, 0, 0.980961, -287.175, -449.89)" stroke="null"/>
    <g id="svg_143" transform="matrix(0.980961, 0, 0, 0.980961, -287.175, -449.89)" stroke="null"/>
    <g id="svg_142" transform="matrix(0.980961, 0, 0, 0.980961, -287.175, -449.89)" stroke="null"/>
    <g id="svg_141" transform="matrix(0.980961, 0, 0, 0.980961, -287.175, -449.89)" stroke="null"/>
    <g id="svg_140" transform="matrix(0.980961, 0, 0, 0.980961, -287.175, -449.89)" stroke="null"/>
   </g>
  </g>
  <!-- Created with Method Draw - http://github.com/duopixel/Method-Draw/ -->
 </g>
</svg>