<svg width="580" height="400" xmlns="http://www.w3.org/2000/svg" style="vector-effect: non-scaling-stroke;" stroke="null">
 <!-- Created with Method Draw - http://github.com/duopixel/Method-Draw/ -->

 <g stroke="null">
  <title stroke="null">background</title>
  <rect stroke="null" fill="none" id="canvas_background" height="402" width="582" y="-1" x="-1"/>
  <g style="vector-effect: non-scaling-stroke;" stroke="null" display="none" overflow="visible" y="0" x="0" height="100%" width="100%" id="canvasGrid">
   <rect fill="url(#gridpattern)" stroke-width="0" y="0" x="0" height="100%" width="100%"/>
  </g>
 </g>
 <g stroke="null">
  <title stroke="null">Layer 1</title>
  <text stroke="null" transform="matrix(3.13939503409047,0,0,3.13939503409047,-363.33281735223096,-506.70974866693535) " font-weight="bold" xml:space="preserve" text-anchor="start" font-family="Helvetica, Arial, sans-serif" font-size="47" id="svg_1" y="234.983339" x="119.416599" stroke-width="0" fill="#ffffff">LeMenu</text>
  <g transform="rotate(-24 115.32339477539051,124.60789489746097) " stroke="null" id="svg_29">
   <g stroke="null" transform="matrix(0.1275687582572872,0,0,0.1275687582572872,163.02005406452398,80.057761939022) " id="svg_8">
    <g stroke="null" id="svg_9">
     <rect stroke="null" id="svg_10" fill="#ffffff" height="75.231" width="323.05" y="491.859476" x="-535.415261"/>
    </g>
   </g>
   <g stroke="null" transform="matrix(0.1275687582572872,0,0,0.1275687582572872,163.02005406452398,80.057761939022) " id="svg_11">
    <g stroke="null" id="svg_12">
     <path stroke="null" id="svg_13" fill="#ffffff" d="m-212.368261,183.385476c-26.722,0 -50.835,11.112 -68.02,28.946c-6.555,-45.778 -45.91,-80.973 -93.501,-80.973s-86.946,35.194 -93.501,80.973c-17.185,-17.833 -41.298,-28.946 -68.02,-28.946c-52.181,0 -94.48,42.299 -94.48,94.478c0,52.18 42.299,94.478 94.478,94.478l0,86.124l323.044,0l0,-86.125c52.178,0 94.478,-42.299 94.478,-94.478c0.001,-52.18 -42.299,-94.477 -94.478,-94.477z"/>
    </g>
   </g>
   <g stroke="null" transform="matrix(0.1275687582572872,0,0,0.1275687582572872,163.02005406452398,80.057761939022) " id="svg_14"/>
   <g stroke="null" transform="matrix(0.1275687582572872,0,0,0.1275687582572872,163.02005406452398,80.057761939022) " id="svg_15"/>
   <g stroke="null" transform="matrix(0.1275687582572872,0,0,0.1275687582572872,163.02005406452398,80.057761939022) " id="svg_16"/>
   <g stroke="null" transform="matrix(0.1275687582572872,0,0,0.1275687582572872,163.02005406452398,80.057761939022) " id="svg_17"/>
   <g stroke="null" transform="matrix(0.1275687582572872,0,0,0.1275687582572872,163.02005406452398,80.057761939022) " id="svg_18"/>
   <g stroke="null" transform="matrix(0.1275687582572872,0,0,0.1275687582572872,163.02005406452398,80.057761939022) " id="svg_19"/>
   <g stroke="null" transform="matrix(0.1275687582572872,0,0,0.1275687582572872,163.02005406452398,80.057761939022) " id="svg_20"/>
   <g stroke="null" transform="matrix(0.1275687582572872,0,0,0.1275687582572872,163.02005406452398,80.057761939022) " id="svg_21"/>
   <g stroke="null" transform="matrix(0.1275687582572872,0,0,0.1275687582572872,163.02005406452398,80.057761939022) " id="svg_22"/>
   <g stroke="null" transform="matrix(0.1275687582572872,0,0,0.1275687582572872,163.02005406452398,80.057761939022) " id="svg_23"/>
   <g stroke="null" transform="matrix(0.1275687582572872,0,0,0.1275687582572872,163.02005406452398,80.057761939022) " id="svg_24"/>
   <g stroke="null" transform="matrix(0.1275687582572872,0,0,0.1275687582572872,163.02005406452398,80.057761939022) " id="svg_25"/>
   <g stroke="null" transform="matrix(0.1275687582572872,0,0,0.1275687582572872,163.02005406452398,80.057761939022) " id="svg_26"/>
   <g stroke="null" transform="matrix(0.1275687582572872,0,0,0.1275687582572872,163.02005406452398,80.057761939022) " id="svg_27"/>
   <g stroke="null" transform="matrix(0.1275687582572872,0,0,0.1275687582572872,163.02005406452398,80.057761939022) " id="svg_28"/>
  </g>
  <g stroke="null" transform="rotate(45 284.2744445800782,260.4644470214843) " id="svg_51">
   <g stroke="null" transform="matrix(0.980960865770058,0,0,0.980960865770058,-287.1745208432297,-449.89013809750384) " id="svg_34">
    <path stroke="null" id="svg_35" fill="#FFFFFF" d="m747.589333,532.73557l4.984,4.926c0,0 18.16,64.972 -155.33,238.462c-40.607,-23.098 -61.997,25.096 -63.995,31.951c-8.842,8.83 -100.246,98.887 -100.246,98.887l-0.064,-0.128c-0.058,0.128 -0.116,0.244 -0.238,0.349c-8.301,8.365 -21.808,8.365 -30.051,0c-8.302,-8.25 -8.302,-21.797 0,-30.034c0.058,-0.128 0.18,-0.244 0.284,-0.244l0,-0.116c88.808,-88.812 88.755,-88.859 112.388,-112.329c9.254,-9.319 232.268,-231.724 232.268,-231.724z"/>
   </g>
   <g stroke="null" transform="matrix(0.980960865770058,0,0,0.980960865770058,-287.1745208432297,-449.89013809750384) " id="svg_36"/>
   <g stroke="null" transform="matrix(0.980960865770058,0,0,0.980960865770058,-287.1745208432297,-449.89013809750384) " id="svg_37"/>
   <g stroke="null" transform="matrix(0.980960865770058,0,0,0.980960865770058,-287.1745208432297,-449.89013809750384) " id="svg_38"/>
   <g stroke="null" transform="matrix(0.980960865770058,0,0,0.980960865770058,-287.1745208432297,-449.89013809750384) " id="svg_39"/>
   <g stroke="null" transform="matrix(0.980960865770058,0,0,0.980960865770058,-287.1745208432297,-449.89013809750384) " id="svg_40"/>
   <g stroke="null" transform="matrix(0.980960865770058,0,0,0.980960865770058,-287.1745208432297,-449.89013809750384) " id="svg_41"/>
   <g stroke="null" transform="matrix(0.980960865770058,0,0,0.980960865770058,-287.1745208432297,-449.89013809750384) " id="svg_42"/>
   <g stroke="null" transform="matrix(0.980960865770058,0,0,0.980960865770058,-287.1745208432297,-449.89013809750384) " id="svg_43"/>
   <g stroke="null" transform="matrix(0.980960865770058,0,0,0.980960865770058,-287.1745208432297,-449.89013809750384) " id="svg_44"/>
   <g stroke="null" transform="matrix(0.980960865770058,0,0,0.980960865770058,-287.1745208432297,-449.89013809750384) " id="svg_45"/>
   <g stroke="null" transform="matrix(0.980960865770058,0,0,0.980960865770058,-287.1745208432297,-449.89013809750384) " id="svg_46"/>
   <g stroke="null" transform="matrix(0.980960865770058,0,0,0.980960865770058,-287.1745208432297,-449.89013809750384) " id="svg_47"/>
   <g stroke="null" transform="matrix(0.980960865770058,0,0,0.980960865770058,-287.1745208432297,-449.89013809750384) " id="svg_48"/>
   <g stroke="null" transform="matrix(0.980960865770058,0,0,0.980960865770058,-287.1745208432297,-449.89013809750384) " id="svg_49"/>
   <g stroke="null" transform="matrix(0.980960865770058,0,0,0.980960865770058,-287.1745208432297,-449.89013809750384) " id="svg_50"/>
  </g>
 </g>
</svg>